<svg xmlns="http://www.w3.org/2000/svg" xmlns:svg="http://www.w3.org/2000/svg" id="svg3388" width="682.667" height="682.667" preserveAspectRatio="xMidYMid meet" version="1.0" viewBox="0 0 512 512"><metadata id="metadata3390">Created by potrace 1.15, written by Peter Selinger 2001-2017</metadata><g id="g3392" transform="matrix(0.08,0,0,-0.08,51.2,460.8)" style="fill:#000;stroke:none"><path id="path3394" d="M 900,5097 C 768,5052 658,4956 594,4829 528,4696 530,4751 530,3523 l 0,-1113 -265,0 L 0,2410 0,1205 0,0 l 2560,0 2560,0 0,1205 0,1205 -265,0 -265,0 0,1103 c 0,1216 2,1175 -63,1312 -61,128 -183,235 -314,275 -64,20 -91,20 -1657,20 l -1591,-1 -65,-22 z m 3209,-433 c 53,-37 51,0 51,-1169 l 0,-1085 -360,0 -360,0 0,-99 c 0,-621 -639,-1051 -1210,-814 -250,104 -432,302 -515,563 -22,69 -28,110 -33,218 l -5,132 -358,0 -359,0 0,1090 c 0,1181 -2,1126 52,1164 20,14 182,16 1548,16 1394,0 1528,-1 1549,-16 z M 1300,1878 c 139,-398 447,-701 845,-831 148,-48 237,-62 415,-62 178,0 266,13 415,62 391,126 715,446 845,831 l 29,87 416,3 415,2 0,-765 0,-765 -2120,0 -2120,0 0,765 0,765 414,0 413,0 33,-92 z"/><path id="path3396" d="m 3622,4444 c -23,-9 -65,-37 -92,-62 -26,-26 -281,-294 -565,-597 -285,-302 -534,-567 -555,-588 l -37,-38 -287,305 c -321,340 -331,348 -452,354 -91,5 -155,-21 -218,-88 -64,-68 -79,-109 -80,-210 0,-73 4,-92 26,-135 17,-34 161,-194 432,-482 458,-485 448,-477 582,-477 134,0 99,-32 888,807 491,521 711,761 728,795 32,65 33,195 1,263 -25,57 -84,118 -138,144 -53,26 -174,30 -233,9 z"/></g><rect style="fill:none" id="rect3402" width="514.642" height="512.528" x="-1.057" y="-.528"/></svg>